<svg width="104" height="102" viewBox="0 0 104 102" fill="none" xmlns="http://www.w3.org/2000/svg">
<path d="M41.8354 7.70066L36.7267 10.7057L35.5498 8.47696L13.1871 19.0698L40.6584 23.7777L41.4347 31.2403L3.24536 42.7597L30.0655 28.3604L3.37057 23.1266L6.62605 15.9395L39.7318 0.363299L41.8354 7.70066Z" fill="#580AFF"/>
<path d="M56.1344 23.5774L47.8705 29.4373V32.3171L53.505 33.3438L56.1344 23.5774ZM59.6403 34.4457L61.6187 34.7963L59.4901 35.1469L59.1145 37.025L51.7771 39.7546L52.7287 36.2738L43.413 37.8013L43.0374 25.5056L56.4349 22.5006L57.7622 17.5673L41.2093 9.1531L59.7655 11.9077L63.2965 16.7409L59.6403 34.4457ZM76.3936 29.2369L79.9245 10.0045L84.6074 16.8911L81.0514 29.9631L67.0278 38.2271L62.996 32.3171L69.3817 1.71558L73.8643 11.1314L68.8559 31.666L76.3936 29.2369ZM96.4023 23.5774L88.1383 29.4373V32.3171L93.7728 33.3438L96.4023 23.5774ZM99.9082 34.4457L101.886 34.7963L99.7579 35.1469L99.3823 37.025L92.0449 39.7546L92.9965 36.2738L83.6808 37.8013L83.3052 25.5056L96.7028 22.5006L98.03 17.5673L81.4771 9.1531L100.033 11.9077L103.564 16.7409L99.9082 34.4457ZM5.67445 61.9426L48.5717 60.2899L18.496 90.1151L52.7788 87.6359L0.440637 101.234L33.0956 66.0996L5.67445 61.9426ZM46.4682 84.4556L54.7321 78.5957V75.7158L49.0976 74.6891L46.4682 84.4556ZM46.1676 85.5324L44.8404 90.4657L61.3933 98.8799L42.837 96.1252L39.3061 91.2921L43.4881 71.0079L59.1896 70.2316L59.5652 82.5273L46.1676 85.5324ZM66.9777 79.0464L65.375 87.2102L70.7591 92.9949L75.7675 76.7676L66.9777 79.0464ZM59.6904 85.4072L66.1263 56.784L70.6338 60.4151L67.3784 76.993L77.5956 69.9561L81.1265 76.1165L77.3452 92.3438L68.7056 99.5309L59.6904 85.4072Z" fill="#070707"/>
</svg>
